<svg width="65" height="71" viewBox="0 0 65 71" fill="none" xmlns="http://www.w3.org/2000/svg">
<path d="M64.5073 55.4C64.5729 55.8806 64.4458 56.3675 64.1539 56.7549C57.4813 65.4927 46.9838 70.7106 36.0779 70.7106C26.1394 70.7106 16.6125 66.4636 9.9228 59.05C3.15763 51.5473 0.00154732 41.8626 1.04102 31.7766C2.67742 15.9512 15.2885 2.84973 31.035 0.62326C43.6768 -1.17095 56.363 4.02304 64.1334 14.1742C64.4257 14.5578 64.5544 15.0416 64.4914 15.5197C64.4284 15.9979 64.1788 16.4318 63.7971 16.7267L56.6854 22.2396C56.302 22.535 55.8176 22.6669 55.3374 22.6067C55.0977 22.5768 54.8661 22.4992 54.6569 22.3784C54.4477 22.2576 54.2652 22.0961 54.1196 21.9033C49.0766 15.3063 40.8394 11.9237 32.6368 13.0867C22.4341 14.5309 14.259 23.0253 13.1989 33.2897C12.5231 39.8318 14.568 46.1132 18.9592 50.9812C23.2989 55.791 29.4807 58.5458 35.9233 58.5458C43.0968 58.5458 49.9615 55.0808 54.2875 49.2831C54.5825 48.8955 55.0147 48.6382 55.4915 48.5662C55.9787 48.5044 56.4661 48.6279 56.8538 48.923L63.8076 54.1922C64.1901 54.4874 64.4414 54.9213 64.5073 55.4Z" fill="#114631"/>
<path d="M51.4391 46.3167C47.9296 51.243 42.2418 54.1865 36.2279 54.1865C30.9757 54.1865 25.9326 51.9393 22.3991 48.0215C18.8724 44.1106 17.1605 38.855 17.7025 33.5993C18.5671 25.232 25.2362 18.3022 33.5658 17.1255C40.1663 16.1889 46.6156 18.7448 50.7976 23.9593C51.1406 24.395 51.302 24.9543 51.2369 25.51C51.2048 25.7858 51.1183 26.0525 50.9822 26.2946C50.8462 26.5367 50.6635 26.7493 50.4445 26.92L44.8526 31.246C43.9504 31.9458 42.6498 31.7949 41.9363 30.9064C40.5263 29.143 38.4441 28.1309 36.2279 28.1309C32.2381 28.1309 29.1129 31.3935 29.1129 35.5617C29.1129 39.7264 32.2381 42.9889 36.2279 42.9889C38.6774 42.9889 40.9621 41.7435 42.3412 39.6577C42.6603 39.1774 43.1611 38.8515 43.7374 38.7555C44.3 38.656 44.8867 38.8035 45.343 39.15L51.0036 43.4418C51.9024 44.121 52.0944 45.4007 51.4391 46.3167Z" fill="#EF324D"/>
</svg>
